<svg width="21" height="22" viewBox="0 0 21 22" fill="currentColor" xmlns="http://www.w3.org/2000/svg">
<path fill-rule="evenodd" clip-rule="evenodd" d="M5.2163 14.5029C5.0563 14.5029 4.8953 14.4519 4.7593 14.3479C4.4313 14.0949 4.3693 13.6239 4.6223 13.2959L7.6153 9.40587C7.7373 9.24687 7.9183 9.14387 8.1163 9.11887C8.3183 9.09287 8.5163 9.14887 8.6733 9.27387L11.4933 11.4889L13.9603 8.30587C14.2143 7.97687 14.6843 7.91587 15.0123 8.17187C15.3403 8.42587 15.4003 8.89687 15.1463 9.22387L12.2163 13.0039C12.0943 13.1619 11.9143 13.2649 11.7163 13.2889C11.5163 13.3159 11.3183 13.2579 11.1603 13.1349L8.3423 10.9209L5.8113 14.2099C5.6633 14.4019 5.4413 14.5029 5.2163 14.5029Z" fill="currentColor"/>
<mask id="mask0_808_4133" style="mask-type:luminance" maskUnits="userSpaceOnUse" x="15" y="0" width="6" height="6">
<path fill-rule="evenodd" clip-rule="evenodd" d="M15.2953 0.5H20.6393V5.8449H15.2953V0.5Z" fill="white"/>
</mask>
<g mask="url(#mask0_808_4133)">
<path fill-rule="evenodd" clip-rule="evenodd" d="M17.9673 2C17.3213 2 16.7953 2.525 16.7953 3.172C16.7953 3.818 17.3213 4.345 17.9673 4.345C18.6133 4.345 19.1393 3.818 19.1393 3.172C19.1393 2.525 18.6133 2 17.9673 2ZM17.9673 5.845C16.4943 5.845 15.2953 4.646 15.2953 3.172C15.2953 1.698 16.4943 0.5 17.9673 0.5C19.4413 0.5 20.6393 1.698 20.6393 3.172C20.6393 4.646 19.4413 5.845 17.9673 5.845Z" fill="currentColor"/>
</g>
<mask id="mask1_808_4133" style="mask-type:luminance" maskUnits="userSpaceOnUse" x="0" y="1" width="20" height="21">
<path fill-rule="evenodd" clip-rule="evenodd" d="M0 1.34204H19.8619V21.203H0V1.34204Z" fill="white"/>
</mask>
<g mask="url(#mask1_808_4133)">
<path fill-rule="evenodd" clip-rule="evenodd" d="M14.2329 21.203H5.62889C2.26189 21.203 -0.000106812 18.838 -0.000106812 15.318V7.23604C-0.000106812 3.71104 2.26189 1.34204 5.62889 1.34204H12.8969C13.3109 1.34204 13.6469 1.67804 13.6469 2.09204C13.6469 2.50604 13.3109 2.84204 12.8969 2.84204H5.62889C3.12089 2.84204 1.49989 4.56604 1.49989 7.23604V15.318C1.49989 18.023 3.08189 19.703 5.62889 19.703H14.2329C16.7409 19.703 18.3619 17.982 18.3619 15.318V8.27904C18.3619 7.86504 18.6979 7.52904 19.1119 7.52904C19.5259 7.52904 19.8619 7.86504 19.8619 8.27904V15.318C19.8619 18.838 17.5999 21.203 14.2329 21.203Z" fill="currentColor"/>
</g>
</svg>
