<svg width="20" height="19" viewBox="0 0 20 19" fill="none" xmlns="http://www.w3.org/2000/svg">
<path d="M9.395 18.4101L9.388 18.4071L9.366 18.3951C9.23729 18.3243 9.10961 18.2516 8.983 18.1771C7.46081 17.2726 6.03827 16.21 4.739 15.0071C2.438 12.8601 0 9.67407 0 5.75007C0 2.82207 2.464 0.500071 5.438 0.500071C6.26475 0.496022 7.08178 0.678412 7.82832 1.03368C8.57486 1.38894 9.2317 1.90794 9.75 2.55207C10.2684 1.90781 10.9254 1.38873 11.6721 1.03346C12.4189 0.678188 13.2361 0.495871 14.063 0.500071C17.036 0.500071 19.5 2.82207 19.5 5.75007C19.5 9.67507 17.062 12.8611 14.761 15.0061C13.4617 16.209 12.0392 17.2716 10.517 18.1761C10.3904 18.2509 10.2627 18.3239 10.134 18.3951L10.112 18.4071L10.105 18.4111L10.102 18.4121C9.99356 18.4695 9.87271 18.4995 9.75 18.4995C9.62729 18.4995 9.50644 18.4695 9.398 18.4121L9.395 18.4101Z" fill="url(#paint0_linear_1338_23414)"/>
<defs>
<linearGradient id="paint0_linear_1338_23414" x1="9.75" y1="0.5" x2="9.75" y2="18.4995" gradientUnits="userSpaceOnUse">
<stop offset="0.399038" stop-color="#456DFF"/>
<stop offset="1" stop-color="#AABCFF"/>
</linearGradient>
</defs>
</svg>
