<svg width="66" height="72" viewBox="0 0 66 72" fill="none" xmlns="http://www.w3.org/2000/svg">
<path fill-rule="evenodd" clip-rule="evenodd" d="M62.8899 30.0142H3.47656C2.09656 30.0142 0.976562 28.8942 0.976562 27.5142C0.976562 26.1342 2.09656 25.0142 3.47656 25.0142H62.8899C64.2699 25.0142 65.3899 26.1342 65.3899 27.5142C65.3899 28.8942 64.2699 30.0142 62.8899 30.0142Z" fill="#005172"/>
<path fill-rule="evenodd" clip-rule="evenodd" d="M48.0055 43.0322C46.6255 43.0322 45.4922 41.9122 45.4922 40.5322C45.4922 39.1522 46.5955 38.0322 47.9755 38.0322H48.0055C49.3855 38.0322 50.5055 39.1522 50.5055 40.5322C50.5055 41.9122 49.3855 43.0322 48.0055 43.0322Z" fill="#005172"/>
<path fill-rule="evenodd" clip-rule="evenodd" d="M33.2126 43.0322C31.8326 43.0322 30.6992 41.9122 30.6992 40.5322C30.6992 39.1522 31.8026 38.0322 33.1826 38.0322H33.2126C34.5926 38.0322 35.7126 39.1522 35.7126 40.5322C35.7126 41.9122 34.5926 43.0322 33.2126 43.0322Z" fill="#005172"/>
<path fill-rule="evenodd" clip-rule="evenodd" d="M18.3917 43.0322C17.0117 43.0322 15.875 41.9122 15.875 40.5322C15.875 39.1522 16.9817 38.0322 18.3617 38.0322H18.3917C19.7717 38.0322 20.8917 39.1522 20.8917 40.5322C20.8917 41.9122 19.7717 43.0322 18.3917 43.0322Z" fill="#005172"/>
<path fill-rule="evenodd" clip-rule="evenodd" d="M48.0055 55.9878C46.6255 55.9878 45.4922 54.8678 45.4922 53.4878C45.4922 52.1078 46.5955 50.9878 47.9755 50.9878H48.0055C49.3855 50.9878 50.5055 52.1078 50.5055 53.4878C50.5055 54.8678 49.3855 55.9878 48.0055 55.9878Z" fill="#005172"/>
<path fill-rule="evenodd" clip-rule="evenodd" d="M33.2126 55.9878C31.8326 55.9878 30.6992 54.8678 30.6992 53.4878C30.6992 52.1078 31.8026 50.9878 33.1826 50.9878H33.2126C34.5926 50.9878 35.7126 52.1078 35.7126 53.4878C35.7126 54.8678 34.5926 55.9878 33.2126 55.9878Z" fill="#005172"/>
<path fill-rule="evenodd" clip-rule="evenodd" d="M18.3917 55.9878C17.0117 55.9878 15.875 54.8678 15.875 53.4878C15.875 52.1078 16.9817 50.9878 18.3617 50.9878H18.3917C19.7717 50.9878 20.8917 52.1078 20.8917 53.4878C20.8917 54.8678 19.7717 55.9878 18.3917 55.9878Z" fill="#005172"/>
<path fill-rule="evenodd" clip-rule="evenodd" d="M46.6445 16.3035C45.2645 16.3035 44.1445 15.1835 44.1445 13.8035V2.8335C44.1445 1.4535 45.2645 0.333496 46.6445 0.333496C48.0245 0.333496 49.1445 1.4535 49.1445 2.8335V13.8035C49.1445 15.1835 48.0245 16.3035 46.6445 16.3035Z" fill="#005172"/>
<path fill-rule="evenodd" clip-rule="evenodd" d="M19.7188 16.3035C18.3388 16.3035 17.2188 15.1835 17.2188 13.8035V2.8335C17.2188 1.4535 18.3388 0.333496 19.7188 0.333496C21.0987 0.333496 22.2188 1.4535 22.2188 2.8335V13.8035C22.2188 15.1835 21.0987 16.3035 19.7188 16.3035Z" fill="#005172"/>
<mask id="mask0_1805_12056" style="mask-type:luminance" maskUnits="userSpaceOnUse" x="0" y="5" width="66" height="67">
<path fill-rule="evenodd" clip-rule="evenodd" d="M0.667969 5.59717H65.668V72.0002H0.667969V5.59717Z" fill="white"/>
</mask>
<g mask="url(#mask0_1805_12056)">
<path fill-rule="evenodd" clip-rule="evenodd" d="M19.0713 10.5972C10.428 10.5972 5.66797 15.2072 5.66797 23.5772V53.7405C5.66797 62.2938 10.428 67.0005 19.0713 67.0005H47.2646C55.908 67.0005 60.668 62.3805 60.668 53.9938V23.5772C60.6813 19.4605 59.5746 16.2605 57.378 14.0605C55.118 11.7938 51.6346 10.5972 47.2946 10.5972H19.0713ZM47.2646 72.0005H19.0713C7.7213 72.0005 0.667969 65.0038 0.667969 53.7405V23.5772C0.667969 12.4838 7.7213 5.59717 19.0713 5.59717H47.2946C52.9913 5.59717 57.7013 7.30383 60.918 10.5272C64.0413 13.6638 65.6846 18.1738 65.668 23.5838V53.9938C65.668 65.1005 58.6146 72.0005 47.2646 72.0005Z" fill="#005172"/>
</g>
</svg>
