<svg width="20" height="20" viewBox="0 0 20 20" fill="none" xmlns="http://www.w3.org/2000/svg">
<path fill-rule="evenodd" clip-rule="evenodd" d="M7.60131 13.1365C7.40931 13.1365 7.21731 13.0635 7.07131 12.9165C6.77831 12.6235 6.77831 12.1495 7.07131 11.8565L11.8633 7.06448C12.1563 6.77148 12.6303 6.77148 12.9233 7.06448C13.2163 7.35748 13.2163 7.83148 12.9233 8.12448L8.13131 12.9165C7.98531 13.0635 7.79331 13.1365 7.60131 13.1365Z" fill="white"/>
<path fill-rule="evenodd" clip-rule="evenodd" d="M12.3973 13.1395C12.2053 13.1395 12.0133 13.0665 11.8673 12.9195L7.07131 8.12252C6.77831 7.82952 6.77831 7.35552 7.07131 7.06252C7.36531 6.76952 7.83931 6.76952 8.13131 7.06252L12.9273 11.8595C13.2203 12.1525 13.2203 12.6265 12.9273 12.9195C12.7813 13.0665 12.5883 13.1395 12.3973 13.1395Z" fill="white"/>
<path fill-rule="evenodd" clip-rule="evenodd" d="M5.665 1.5C3.135 1.5 1.5 3.233 1.5 5.916V14.084C1.5 16.767 3.135 18.5 5.665 18.5H14.333C16.864 18.5 18.5 16.767 18.5 14.084V5.916C18.5 3.233 16.864 1.5 14.334 1.5H5.665ZM14.333 20H5.665C2.276 20 0 17.622 0 14.084V5.916C0 2.378 2.276 0 5.665 0H14.334C17.723 0 20 2.378 20 5.916V14.084C20 17.622 17.723 20 14.333 20Z" fill="white"/>
</svg>
