<svg width="24" height="25" viewBox="0 0 24 25" fill="currentColor" xmlns="http://www.w3.org/2000/svg">
<g clip-path="url(#clip0_808_2442)">
<path fill-rule="evenodd" clip-rule="evenodd" d="M11.2114 11.712L10.1644 15.059L13.5104 14.011L14.5584 10.664L11.2114 11.712ZM9.02041 16.952C8.82441 16.952 8.63241 16.875 8.48941 16.733C8.29241 16.535 8.22041 16.244 8.30441 15.979L9.89741 10.89C9.97041 10.654 10.1544 10.471 10.3884 10.398L15.4774 8.80501C15.7444 8.72001 16.0344 8.79301 16.2324 8.99001C16.4294 9.18801 16.5014 9.47901 16.4174 9.74401L14.8254 14.833C14.7524 15.068 14.5674 15.252 14.3334 15.325L9.24441 16.918C9.17041 16.941 9.09441 16.952 9.02041 16.952Z" fill="currentColor"/>
<mask id="mask0_808_2442" style="mask-type:luminance" maskUnits="userSpaceOnUse" x="2" y="2" width="21" height="22">
<path fill-rule="evenodd" clip-rule="evenodd" d="M2 2.5H22.7218V23.2217H2V2.5Z" fill="white"/>
</mask>
<g mask="url(#mask0_808_2442)">
<path fill-rule="evenodd" clip-rule="evenodd" d="M12.3608 4C7.4748 4 3.4998 7.976 3.4998 12.861C3.4998 17.747 7.4748 21.722 12.3608 21.722C17.2468 21.722 21.2218 17.747 21.2218 12.861C21.2218 7.976 17.2468 4 12.3608 4ZM12.3608 23.222C6.6478 23.222 1.9998 18.574 1.9998 12.861C1.9998 7.148 6.6478 2.5 12.3608 2.5C18.0738 2.5 22.7218 7.148 22.7218 12.861C22.7218 18.574 18.0738 23.222 12.3608 23.222Z" fill="currentColor"/>
</g>
</g>
<defs>
<clipPath id="clip0_808_2442">
<rect width="24" height="24" fill="white" transform="translate(0 0.5)"/>
</clipPath>
</defs>
</svg>
