<svg width="21" height="22" viewBox="0 0 21 22" fill="currentColor" xmlns="http://www.w3.org/2000/svg">
<path fill-rule="evenodd" clip-rule="evenodd" d="M12.2168 14.7913C13.4208 14.7913 14.4008 15.7642 14.4008 16.9603V20.0362C14.4008 20.2932 14.6068 20.4992 14.8708 20.5052H16.7768C18.2788 20.5052 19.4998 19.2993 19.4998 17.8173V9.09325C19.4928 8.58325 19.2498 8.10325 18.8328 7.78425L12.2398 2.52625C11.3548 1.82525 10.1168 1.82525 9.22879 2.52825L2.68079 7.78225C2.24779 8.11125 2.00479 8.59125 1.99979 9.11025V17.8173C1.99979 19.2993 3.22079 20.5052 4.72279 20.5052H6.64679C6.91779 20.5052 7.13779 20.2902 7.13779 20.0262C7.13779 19.9682 7.14479 19.9102 7.15679 19.8552V16.9603C7.15679 15.7712 8.13079 14.7993 9.32579 14.7913H12.2168ZM16.7768 22.0053H14.8528C13.7508 21.9793 12.9008 21.1143 12.9008 20.0363V16.9603C12.9008 16.5913 12.5938 16.2913 12.2168 16.2913H9.33079C8.96179 16.2933 8.65679 16.5943 8.65679 16.9603V20.0263C8.65679 20.1013 8.64679 20.1733 8.62579 20.2413C8.51779 21.2313 7.67179 22.0053 6.64679 22.0053H4.72279C2.39379 22.0053 0.499786 20.1262 0.499786 17.8172V9.10325C0.509786 8.10925 0.967786 7.19925 1.75879 6.60025L8.29379 1.35525C9.73279 0.21525 11.7378 0.21525 13.1738 1.35325L19.7558 6.60325C20.5288 7.19225 20.9868 8.10025 20.9998 9.08225V17.8172C20.9998 20.1262 19.1058 22.0053 16.7768 22.0053Z" fill="currentColor"/>
</svg>
