<svg width="19" height="18" viewBox="0 0 19 18" fill="none" xmlns="http://www.w3.org/2000/svg">
<g clip-path="url(#clip0_1813_23876)">
<mask id="mask0_1813_23876" style="mask-type:luminance" maskUnits="userSpaceOnUse" x="2" y="1" width="15" height="16">
<path fill-rule="evenodd" clip-rule="evenodd" d="M2.00024 1.5H16.9699V16.4624H2.00024V1.5Z" fill="white"/>
</mask>
<g mask="url(#mask0_1813_23876)">
<path fill-rule="evenodd" clip-rule="evenodd" d="M6.23774 2.625C4.34699 2.625 3.12524 3.92025 3.12524 5.92425V12.0382C3.12524 14.043 4.34699 15.3375 6.23774 15.3375H12.7252C14.6205 15.3375 15.8452 14.043 15.8452 12.0382V5.92425C15.8452 3.92025 14.6205 2.625 12.7252 2.625H6.23774ZM12.7252 16.4625H6.23774C3.70274 16.4625 2.00024 14.6843 2.00024 12.0383V5.92425C2.00024 3.27825 3.70274 1.5 6.23774 1.5H12.7252C15.264 1.5 16.9702 3.27825 16.9702 5.92425V12.0383C16.9702 14.6843 15.264 16.4625 12.7252 16.4625Z" fill="#005172"/>
</g>
<path fill-rule="evenodd" clip-rule="evenodd" d="M4.46094 12.8852C4.32144 12.8852 4.18269 12.8342 4.07394 12.7307C3.84819 12.5177 3.83919 12.1607 4.05294 11.9364L5.19894 10.7267C5.80569 10.0824 6.82944 10.0509 7.47669 10.6584L8.19519 11.3874C8.39544 11.5899 8.72094 11.5937 8.92194 11.3957C8.99769 11.3064 10.6312 9.32266 10.6312 9.32266C10.9417 8.94616 11.3797 8.71366 11.8664 8.66566C12.3539 8.62291 12.8272 8.76466 13.2044 9.07441C13.2367 9.10066 13.2659 9.12616 14.9129 10.8174C15.1297 11.0394 15.1259 11.3957 14.9032 11.6124C14.6812 11.8307 14.3242 11.8239 14.1074 11.6019C14.1074 11.6019 12.5707 10.0247 12.4612 9.91816C12.3449 9.82291 12.1582 9.76741 11.9744 9.78541C11.7877 9.80416 11.6197 9.89341 11.5004 10.0382C9.75744 12.1524 9.73644 12.1727 9.70794 12.2004C9.06444 12.8319 8.02569 12.8214 7.39344 12.1764C7.39344 12.1764 6.69594 11.4684 6.68394 11.4542C6.51069 11.2937 6.20169 11.3042 6.01644 11.4999L4.86894 12.7097C4.75794 12.8267 4.60944 12.8852 4.46094 12.8852Z" fill="#005172"/>
<path fill-rule="evenodd" clip-rule="evenodd" d="M6.91827 6.09668C6.50352 6.09668 6.16602 6.43418 6.16602 6.84968C6.16602 7.26518 6.50352 7.60343 6.91902 7.60343C7.33452 7.60343 7.67277 7.26518 7.67277 6.84968C7.67277 6.43493 7.33452 6.09743 6.91827 6.09668ZM6.91902 8.72843C5.88327 8.72843 5.04102 7.88543 5.04102 6.84968C5.04102 5.81393 5.88327 4.97168 6.91902 4.97168C7.95552 4.97243 8.79777 5.81543 8.79777 6.84968C8.79777 7.88543 7.95477 8.72843 6.91902 8.72843Z" fill="#005172"/>
</g>
<defs>
<clipPath id="clip0_1813_23876">
<rect width="18" height="18" fill="white" transform="translate(0.5)"/>
</clipPath>
</defs>
</svg>
