<svg width="15" height="16" viewBox="0 0 15 16" fill="none" xmlns="http://www.w3.org/2000/svg">
<mask id="mask0_1845_4243" style="mask-type:luminance" maskUnits="userSpaceOnUse" x="0" y="0" width="15" height="16">
<path fill-rule="evenodd" clip-rule="evenodd" d="M0 0.5H14.9697V15.4624H0V0.5Z" fill="white"/>
</mask>
<g mask="url(#mask0_1845_4243)">
<path fill-rule="evenodd" clip-rule="evenodd" d="M4.2375 1.625C2.34675 1.625 1.125 2.92025 1.125 4.92425V11.0382C1.125 13.043 2.34675 14.3375 4.2375 14.3375H10.725C12.6202 14.3375 13.845 13.043 13.845 11.0382V4.92425C13.845 2.92025 12.6202 1.625 10.725 1.625H4.2375ZM10.725 15.4625H4.2375C1.7025 15.4625 0 13.6843 0 11.0383V4.92425C0 2.27825 1.7025 0.5 4.2375 0.5H10.725C13.2637 0.5 14.97 2.27825 14.97 4.92425V11.0383C14.97 13.6843 13.2637 15.4625 10.725 15.4625Z" fill="#005172"/>
</g>
<path fill-rule="evenodd" clip-rule="evenodd" d="M2.46094 11.8852C2.32144 11.8852 2.18269 11.8342 2.07394 11.7307C1.84819 11.5177 1.83919 11.1607 2.05294 10.9364L3.19894 9.72666C3.80569 9.08241 4.82944 9.05091 5.47669 9.65841L6.19519 10.3874C6.39544 10.5899 6.72094 10.5937 6.92194 10.3957C6.99769 10.3064 8.63119 8.32266 8.63119 8.32266C8.94169 7.94616 9.37969 7.71366 9.86644 7.66566C10.3539 7.62291 10.8272 7.76466 11.2044 8.07441C11.2367 8.10066 11.2659 8.12616 12.9129 9.81741C13.1297 10.0394 13.1259 10.3957 12.9032 10.6124C12.6812 10.8307 12.3242 10.8239 12.1074 10.6019C12.1074 10.6019 10.5707 9.02466 10.4612 8.91816C10.3449 8.82291 10.1582 8.76741 9.97444 8.78541C9.78769 8.80416 9.61969 8.89341 9.50044 9.03816C7.75744 11.1524 7.73644 11.1727 7.70794 11.2004C7.06444 11.8319 6.02569 11.8214 5.39344 11.1764C5.39344 11.1764 4.69594 10.4684 4.68394 10.4542C4.51069 10.2937 4.20169 10.3042 4.01644 10.4999L2.86894 11.7097C2.75794 11.8267 2.60944 11.8852 2.46094 11.8852Z" fill="#005172"/>
<path fill-rule="evenodd" clip-rule="evenodd" d="M4.91631 5.09668C4.50156 5.09668 4.16406 5.43418 4.16406 5.84968C4.16406 6.26518 4.50156 6.60343 4.91706 6.60343C5.33256 6.60343 5.67081 6.26518 5.67081 5.84968C5.67081 5.43493 5.33256 5.09743 4.91631 5.09668ZM4.91706 7.72843C3.88131 7.72843 3.03906 6.88543 3.03906 5.84968C3.03906 4.81393 3.88131 3.97168 4.91706 3.97168C5.95356 3.97243 6.79581 4.81543 6.79581 5.84968C6.79581 6.88543 5.95281 7.72843 4.91706 7.72843Z" fill="#005172"/>
</svg>
