<svg width="57" height="67" viewBox="0 0 57 67" fill="none" xmlns="http://www.w3.org/2000/svg">
<mask id="mask0_1805_8758" style="mask-type:luminance" maskUnits="userSpaceOnUse" x="0" y="0" width="57" height="67">
<path fill-rule="evenodd" clip-rule="evenodd" d="M0 0.705566H56.8424V66.8839H0V0.705566Z" fill="white"/>
</mask>
<g mask="url(#mask0_1805_8758)">
<path fill-rule="evenodd" clip-rule="evenodd" d="M15.2437 5.70557C9.72034 5.70557 5.13368 10.1789 5.00368 15.6956V51.3456C4.88035 57.0556 9.38034 61.7589 15.0337 61.8856H41.9137C47.477 61.6556 51.8837 57.0322 51.8437 51.3656V21.7989L36.3937 5.70557H15.2837H15.2437ZM15.2837 66.8856H14.9203C6.51368 66.6956 -0.179655 59.7022 0.0036781 51.2922V15.6356C0.197011 7.36557 7.02701 0.705566 15.237 0.705566H15.2937H37.4603C38.1403 0.705566 38.7903 0.982233 39.2637 1.47223L56.147 19.0622C56.5937 19.5256 56.8437 20.1489 56.8437 20.7922V51.3456C56.9037 59.7089 50.3903 66.5422 42.0137 66.8822L15.2837 66.8856Z" fill="#005172"/>
</g>
<path fill-rule="evenodd" clip-rule="evenodd" d="M54.3254 23.948H45.142C39.042 23.9313 34.082 18.958 34.082 12.8646V3.16797C34.082 1.78797 35.202 0.667969 36.582 0.667969C37.962 0.667969 39.082 1.78797 39.082 3.16797V12.8646C39.082 16.2113 41.8054 18.938 45.1487 18.948H54.3254C55.7054 18.948 56.8254 20.068 56.8254 21.448C56.8254 22.828 55.7054 23.948 54.3254 23.948Z" fill="#005172"/>
<path fill-rule="evenodd" clip-rule="evenodd" d="M35.9609 47.6948H17.9609C16.5809 47.6948 15.4609 46.5748 15.4609 45.1948C15.4609 43.8148 16.5809 42.6948 17.9609 42.6948H35.9609C37.3409 42.6948 38.4609 43.8148 38.4609 45.1948C38.4609 46.5748 37.3409 47.6948 35.9609 47.6948Z" fill="#005172"/>
<path fill-rule="evenodd" clip-rule="evenodd" d="M29.1437 35.188H17.957C16.577 35.188 15.457 34.068 15.457 32.688C15.457 31.308 16.577 30.188 17.957 30.188H29.1437C30.5237 30.188 31.6437 31.308 31.6437 32.688C31.6437 34.068 30.5237 35.188 29.1437 35.188Z" fill="#005172"/>
</svg>
