<svg width="25" height="25" viewBox="0 0 25 25" fill="currentColor" xmlns="http://www.w3.org/2000/svg">
<path fill-rule="evenodd" clip-rule="evenodd" d="M12.4165 5C12.3255 5 12.1015 5.025 11.9825 5.263L10.1565 8.914C9.86754 9.491 9.31054 9.892 8.66654 9.984L4.57854 10.573C4.30854 10.612 4.21654 10.812 4.18854 10.896C4.16354 10.977 4.12354 11.183 4.30954 11.361L7.26554 14.201C7.73654 14.654 7.95054 15.307 7.83854 15.946L7.14254 19.956C7.09954 20.207 7.25654 20.353 7.32654 20.403C7.40054 20.459 7.59854 20.57 7.84354 20.442L11.4985 18.547C12.0745 18.25 12.7605 18.25 13.3345 18.547L16.9885 20.441C17.2345 20.568 17.4325 20.457 17.5075 20.403C17.5775 20.353 17.7345 20.207 17.6915 19.956L16.9935 15.946C16.8815 15.307 17.0955 14.654 17.5665 14.201L20.5225 11.361C20.7095 11.183 20.6695 10.976 20.6435 10.896C20.6165 10.812 20.5245 10.612 20.2545 10.573L16.1665 9.984C15.5235 9.892 14.9665 9.491 14.6775 8.913L12.8495 5.263C12.7315 5.025 12.5075 5 12.4165 5ZM7.61354 22C7.20054 22 6.79054 21.87 6.43954 21.614C5.83354 21.17 5.53654 20.437 5.66554 19.699L6.36154 15.689C6.38754 15.54 6.33654 15.389 6.22654 15.283L3.27054 12.443C2.72654 11.922 2.53154 11.152 2.76154 10.437C2.99354 9.714 3.60754 9.197 4.36454 9.089L8.45254 8.5C8.61054 8.478 8.74654 8.381 8.81454 8.243L10.6415 4.591C10.9785 3.918 11.6585 3.5 12.4165 3.5C13.1745 3.5 13.8545 3.918 14.1915 4.591L16.0195 8.242C16.0885 8.381 16.2235 8.478 16.3805 8.5L20.4685 9.089C21.2255 9.197 21.8395 9.714 22.0715 10.437C22.3015 11.152 22.1055 11.922 21.5615 12.443L18.6055 15.283C18.4955 15.389 18.4455 15.54 18.4715 15.688L19.1685 19.699C19.2965 20.438 18.9995 21.171 18.3925 21.614C17.7775 22.065 16.9765 22.126 16.2975 21.772L12.6445 19.879C12.5015 19.805 12.3305 19.805 12.1875 19.879L8.53454 21.773C8.24254 21.925 7.92754 22 7.61354 22Z" fill="currentColor"/>
</svg>
