<svg width="23" height="18" viewBox="0 0 23 18" fill="currentColor" xmlns="http://www.w3.org/2000/svg">
<path fill-rule="evenodd" clip-rule="evenodd" d="M11.3597 9.638H11.3867C13.9067 9.638 15.9557 7.588 15.9557 5.069C15.9557 2.55 13.9067 0.5 11.3867 0.5C8.8677 0.5 6.8187 2.55 6.8187 5.066C6.8137 6.283 7.2827 7.429 8.1407 8.292C8.9967 9.156 10.1397 9.634 11.3597 9.638ZM8.3187 5.069C8.3187 3.377 9.6947 2 11.3867 2C13.0787 2 14.4557 3.377 14.4557 5.069C14.4557 6.762 13.0787 8.138 11.3867 8.138H11.3617C10.5457 8.135 9.7797 7.814 9.2047 7.235C8.6297 6.656 8.3157 5.889 8.3187 5.069Z" fill="currentColor"/>
<path d="M16.6448 8.00051C16.6978 8.37551 17.0188 8.64651 17.3868 8.64651C17.4208 8.64651 17.4558 8.64451 17.4908 8.63951C19.2658 8.39051 20.6068 6.85051 20.6108 5.05551C20.6108 3.27251 19.3338 1.76851 17.5758 1.47951C17.1648 1.41451 16.7818 1.68851 16.7138 2.09751C16.6468 2.50651 16.9238 2.89251 17.3318 2.95951C18.3628 3.12851 19.1108 4.01051 19.1108 5.05351C19.1088 6.10551 18.3238 7.00751 17.2838 7.15351C16.8728 7.21051 16.5878 7.58951 16.6448 8.00051Z" fill="currentColor"/>
<path d="M19.6604 14.5482C19.7744 14.8472 20.0594 15.0312 20.3614 15.0312C20.4504 15.0312 20.5404 15.0152 20.6284 14.9822C22.0584 14.4372 22.2724 13.4442 22.2724 12.9002C22.2724 12.0092 21.7634 10.8712 19.3404 10.5082C18.9274 10.4552 18.5474 10.7282 18.4864 11.1382C18.4254 11.5492 18.7084 11.9302 19.1174 11.9922C20.2154 12.1562 20.7724 12.4622 20.7724 12.9002C20.7724 13.0372 20.7724 13.3222 20.0944 13.5802C19.7074 13.7272 19.5124 14.1612 19.6604 14.5482Z" fill="currentColor"/>
<path fill-rule="evenodd" clip-rule="evenodd" d="M11.3867 17.2909C9.72767 17.2909 4.67767 17.2909 4.67767 14.0959C4.67767 10.9139 9.72767 10.9139 11.3867 10.9139C13.0457 10.9139 18.0947 10.9139 18.0947 14.1129C18.0947 17.2909 13.2217 17.2909 11.3867 17.2909ZM11.3867 12.4139C9.01067 12.4139 6.17767 12.7059 6.17767 14.0959C6.17767 15.4969 9.01067 15.7909 11.3867 15.7909C13.7627 15.7909 16.5947 15.4999 16.5947 14.1129C16.5947 12.7089 13.7627 12.4139 11.3867 12.4139Z" fill="currentColor"/>
<path d="M5.38566 8.64645C5.35166 8.64645 5.31666 8.64445 5.28166 8.63945C3.50666 8.39045 2.16666 6.85045 2.16266 5.05745C2.16266 3.27245 3.43966 1.76845 5.19766 1.47945C5.61866 1.41345 5.99166 1.69045 6.05966 2.09745C6.12666 2.50645 5.84966 2.89245 5.44166 2.95945C4.41066 3.12845 3.66266 4.01045 3.66266 5.05545C3.66466 6.10545 4.44966 7.00845 5.48866 7.15345C5.89966 7.21045 6.18466 7.58945 6.12766 8.00045C6.07466 8.37545 5.75366 8.64645 5.38566 8.64645Z" fill="currentColor"/>
<path d="M2.14506 14.9822C2.23306 15.0152 2.32306 15.0312 2.41206 15.0312C2.71406 15.0312 2.99906 14.8472 3.11306 14.5482C3.26106 14.1612 3.06606 13.7272 2.67906 13.5802C2.00006 13.3212 2.00006 13.0372 2.00006 12.9002C2.00006 12.4622 2.55706 12.1562 3.65506 11.9922C4.06406 11.9302 4.34706 11.5492 4.28606 11.1382C4.22406 10.7282 3.84606 10.4562 3.43306 10.5082C1.00906 10.8712 0.500061 12.0102 0.500061 12.9002C0.500061 13.4432 0.714061 14.4362 2.14506 14.9822Z" fill="currentColor"/>
</svg>

