<svg width="24" height="25" viewBox="0 0 24 25" fill="currentColor" xmlns="http://www.w3.org/2000/svg">
<path d="M12 0.5C5.4948 0.5 0 5.9948 0 12.5C0 19.0052 5.4948 24.5 12 24.5C18.5052 24.5 24 19.0052 24 12.5C24 5.9948 18.5052 0.5 12 0.5ZM12 6.5C14.0724 6.5 15.6 8.0264 15.6 10.1C15.6 12.1736 14.0724 13.7 12 13.7C9.9288 13.7 8.4 12.1736 8.4 10.1C8.4 8.0264 9.9288 6.5 12 6.5ZM5.8728 18.2264C6.9492 16.6424 8.7444 15.5864 10.8 15.5864H13.2C15.2568 15.5864 17.0508 16.6424 18.1272 18.2264C16.5936 19.868 14.418 20.9 12 20.9C9.582 20.9 7.4064 19.868 5.8728 18.2264Z" fill="currentColor"/>
</svg>
